<svg xmlns="http://www.w3.org/2000/svg" width="1169" height="827" viewBox="0 0 1169 827">
<rect width="1169" height="827" fill="white"/>
<g font-family="Arial, Helvetica, sans-serif" fill="#000" stroke="#000">
  <text x="584.5" y="42" text-anchor="middle" font-size="22" font-weight="bold" stroke="none">DFD Level 0 — Palermo Perfume System</text>

  <!-- external entities -->
  <g fill="white" stroke-width="1.5">
    <rect x="40" y="90" width="150" height="60"/><rect x="40" y="250" width="150" height="60"/>
    <rect x="40" y="410" width="150" height="60"/><rect x="40" y="570" width="150" height="60"/>
    <rect x="1010" y="180" width="150" height="60"/><rect x="1010" y="420" width="150" height="60"/>
  </g>
  <g font-size="16" stroke="none" text-anchor="middle">
    <text x="115" y="127">Visitor</text><text x="115" y="287">Customer</text>
    <text x="115" y="447">Administrator</text><text x="115" y="607">Email Service</text>
    <text x="1085" y="217">Stripe</text><text x="1085" y="457">AI Service</text>
  </g>

  <!-- Gane & Sarson process -->
  <rect x="405" y="235" width="390" height="250" rx="18" ry="18" fill="white" stroke-width="2"/>
  <text x="600" y="345" text-anchor="middle" font-size="24" font-weight="bold" stroke="none">0</text>
  <text x="600" y="382" text-anchor="middle" font-size="20" font-weight="bold" stroke="none">Palermo Perfume System</text>

  <!-- connectors -->
  <g fill="none" stroke-width="1.3" marker-end="url(#arrow)">
    <path d="M190 120 H290 V290 H405"/>
    <path d="M405 335 H330 V135 H190"/>
    <path d="M190 280 H255 V345 H405"/>
    <path d="M405 400 H375 V295 H190"/>
    <path d="M190 440 H220 V455 H405"/>
    <path d="M405 465 H360 V500 H215 V470"/>
    <path d="M405 545 H350 V600 H190"/>
    <path d="M190 575 H305 V520 H405"/>
    <path d="M795 270 H850 V210 H1010"/>
    <path d="M1010 220 H910 V325 H795"/>
    <path d="M795 455 H900 V450 H1010"/>
    <path d="M1010 470 H900 V495 H795"/>
  </g>

  <!-- flow labels -->
  <g font-size="11.5" stroke="none">
    <text x="205" y="112">Registration / discovery /</text><text x="205" y="126">cart / quiz / support data</text>
    <text x="235" y="329">Catalogue / cart / recommendation /</text><text x="235" y="343">support results</text>
    <text x="198" y="272">Account / checkout / order /</text><text x="198" y="286">review / support data</text>
    <text x="250" y="390">Account / order / invoice /</text><text x="250" y="404">tracking / support results</text>
    <text x="198" y="431">Management / inventory /</text><text x="198" y="445">moderation / reporting actions</text>
    <text x="225" y="513">Management confirmations / reports /</text><text x="225" y="527">audit results</text>
    <text x="208" y="562">Verification / reset email request</text>
    <text x="215" y="565">Delivery result</text>
    <text x="808" y="260">Payment request / verification</text>
    <text x="822" y="311">Verified payment result</text>
    <text x="823" y="441">Minimised approved context</text>
    <text x="812" y="520">AI recommendation / support /</text><text x="812" y="534">promotional output</text>
  </g>

  <defs>
    <marker id="arrow" markerWidth="9" markerHeight="7" refX="8" refY="3.5" orient="auto" markerUnits="strokeWidth">
      <path d="M0,0 L9,3.5 L0,7 z" fill="#000" stroke="none"/>
    </marker>
  </defs>
</g>
</svg>